<svg width="800" height="600" viewBox="0 0 800 600" xmlns="http://www.w3.org/2000/svg">
  <!-- Background -->
  <rect width="800" height="600" fill="#f8fafc"/>
  
  <!-- Header -->
  <rect width="800" height="80" fill="#1e293b"/>
  
  <!-- Logo -->
  <rect x="20" y="20" width="40" height="40" rx="8" fill="#10b981"/>
  <text x="80" y="45" font-family="Arial, sans-serif" font-size="16" font-weight="bold" fill="white">BitSage Cloud</text>
  
  <!-- Navigation -->
  <text x="250" y="45" font-family="Arial, sans-serif" font-size="14" fill="#64748b">Jobs</text>
  <text x="300" y="45" font-family="Arial, sans-serif" font-size="14" fill="#64748b">Compute</text>
  <text x="370" y="45" font-family="Arial, sans-serif" font-size="14" fill="#64748b">Analytics</text>
  <text x="440" y="45" font-family="Arial, sans-serif" font-size="14" fill="#64748b">Settings</text>
  
  <!-- Main content area -->
  <rect x="20" y="100" width="760" height="480" rx="12" fill="white" stroke="#e2e8f0"/>
  
  <!-- Job Cards -->
  <!-- Job 1 -->
  <rect x="40" y="140" width="720" height="100" rx="8" fill="#f1f5f9"/>
  <text x="60" y="165" font-family="Arial, sans-serif" font-size="18" font-weight="bold" fill="#1e293b">Render Job #1234</text>
  <text x="60" y="185" font-family="Arial, sans-serif" font-size="14" fill="#10b981">Status: Running</text>
  <rect x="60" y="200" width="200" height="8" rx="4" fill="#e2e8f0"/>
  <rect x="60" y="200" width="150" height="8" rx="4" fill="#10b981"/>
  <text x="280" y="208" font-family="Arial, sans-serif" font-size="12" fill="#64748b">75%</text>
  <text x="400" y="185" font-family="Arial, sans-serif" font-size="14" fill="#64748b">GPU: H100 (2x)</text>
  <text x="400" y="208" font-family="Arial, sans-serif" font-size="14" fill="#64748b">Cost: $2.45/hr</text>
  
  <!-- Job 2 -->
  <rect x="40" y="260" width="720" height="100" rx="8" fill="#f1f5f9"/>
  <text x="60" y="285" font-family="Arial, sans-serif" font-size="18" font-weight="bold" fill="#1e293b">AI Training #5678</text>
  <text x="60" y="305" font-family="Arial, sans-serif" font-size="14" fill="#6b7280">Status: Queued</text>
  <rect x="60" y="320" width="200" height="8" rx="4" fill="#e2e8f0"/>
  <text x="280" y="328" font-family="Arial, sans-serif" font-size="12" fill="#64748b">0%</text>
  <text x="400" y="305" font-family="Arial, sans-serif" font-size="14" fill="#64748b">GPU: A100 (4x)</text>
  <text x="400" y="328" font-family="Arial, sans-serif" font-size="14" fill="#64748b">Est: $8.20/hr</text>
  
  <!-- Job 3 -->
  <rect x="40" y="380" width="720" height="100" rx="8" fill="#f1f5f9"/>
  <text x="60" y="405" font-family="Arial, sans-serif" font-size="18" font-weight="bold" fill="#1e293b">Batch Process #9012</text>
  <text x="60" y="425" font-family="Arial, sans-serif" font-size="14" fill="#059669">Status: Complete</text>
  <rect x="60" y="440" width="200" height="8" rx="4" fill="#e2e8f0"/>
  <rect x="60" y="440" width="200" height="8" rx="4" fill="#10b981"/>
  <text x="280" y="448" font-family="Arial, sans-serif" font-size="12" fill="#64748b">100%</text>
  <text x="400" y="425" font-family="Arial, sans-serif" font-size="14" fill="#64748b">GPU: RTX 4090 (8x)</text>
  <text x="400" y="448" font-family="Arial, sans-serif" font-size="14" fill="#64748b">Total: $45.60</text>
  
  <!-- Stats sidebar -->
  <rect x="600" y="120" width="160" height="120" rx="8" fill="#dcfce7" stroke="#16a34a"/>
  <text x="620" y="145" font-family="Arial, sans-serif" font-size="14" font-weight="bold" fill="#166534">Active Jobs</text>
  <text x="620" y="165" font-family="Arial, sans-serif" font-size="24" font-weight="bold" fill="#16a34a">3</text>
  <text x="620" y="185" font-family="Arial, sans-serif" font-size="12" fill="#166534">GPU Utilization</text>
  <text x="620" y="205" font-family="Arial, sans-serif" font-size="20" font-weight="bold" fill="#16a34a">87%</text>
  <text x="620" y="225" font-family="Arial, sans-serif" font-size="12" fill="#166534">Est. Monthly: $2,847</text>
</svg>
